<svg width="25" height="25" viewBox="0 0 25 25" fill="none" xmlns="http://www.w3.org/2000/svg">
<path d="M14.5 10H7C6.17275 10 5.5 10.6727 5.5 11.5V19C5.5 19.8273 6.17275 20.5 7 20.5H14.5C15.3273 20.5 16 19.8273 16 19V11.5C16 10.6727 15.3273 10 14.5 10Z" fill="#181A1A"/>
<path d="M19 5.5H11.5C11.1022 5.5 10.7206 5.65804 10.4393 5.93934C10.158 6.22064 10 6.60218 10 7V8.5H16C16.3978 8.5 16.7794 8.65804 17.0607 8.93934C17.342 9.22064 17.5 9.60218 17.5 10V16H19C19.3978 16 19.7794 15.842 20.0607 15.5607C20.342 15.2794 20.5 14.8978 20.5 14.5V7C20.5 6.60218 20.342 6.22064 20.0607 5.93934C19.7794 5.65804 19.3978 5.5 19 5.5Z" fill="#181A1A"/>
</svg>
